<?xml version="1.0" standalone="no"?>
<!DOCTYPE svg PUBLIC "-//W3C//DTD SVG 20010904//EN"
 "http://www.w3.org/TR/2001/REC-SVG-20010904/DTD/svg10.dtd">
<svg version="1.0" xmlns="http://www.w3.org/2000/svg"
 width="260.000000pt" height="260.000000pt" viewBox="0 0 260.000000 260.000000"
 preserveAspectRatio="xMidYMid meet">
<metadata>
Created by potrace 1.11, written by Peter Selinger 2001-2013
</metadata>
<g transform="translate(0.000000,260.000000) scale(0.100000,-0.100000)"
fill="#000000" stroke="none">
<path d="M1140 2560 l0 -40 -85 0 -85 0 0 -40 0 -40 -40 0 -40 0 0 -40 0 -40
-120 0 -120 0 0 -40 0 -40 -40 0 -40 0 0 -85 0 -85 -40 0 -40 0 0 -40 0 -40
-40 0 -40 0 0 -40 0 -40 -45 0 -45 0 0 -80 0 -80 85 0 85 0 0 -125 0 -125 80
0 80 0 0 -80 0 -80 -40 0 -40 0 0 40 0 40 -125 0 -125 0 0 -40 0 -40 -40 0
-40 0 0 -40 0 -40 -40 0 -40 0 0 -80 0 -80 40 0 40 0 0 40 0 40 165 0 165 0 0
-40 0 -40 245 0 245 0 0 40 0 40 40 0 40 0 0 40 0 40 120 0 120 0 0 -40 0 -40
-40 0 -40 0 0 -40 0 -40 40 0 40 0 0 -40 0 -40 -40 0 -40 0 0 -125 0 -125 40
0 40 0 0 -40 0 -40 40 0 40 0 0 -40 0 -40 40 0 40 0 0 40 0 40 165 0 165 0 0
-40 0 -40 40 0 40 0 0 -40 0 -40 40 0 40 0 0 -40 0 -40 40 0 40 0 0 -40 0 -40
40 0 40 0 0 -40 0 -40 40 0 40 0 0 -45 0 -45 45 0 45 0 0 -40 0 -40 40 0 40 0
0 -80 0 -80 40 0 40 0 0 80 0 80 -40 0 -40 0 0 40 0 40 -40 0 -40 0 0 45 0 45
-45 0 -45 0 0 80 0 80 -40 0 -40 0 0 40 0 40 -40 0 -40 0 0 40 0 40 -40 0 -40
0 0 40 0 40 -40 0 -40 0 0 40 0 40 40 0 40 0 0 40 0 40 40 0 40 0 0 85 0 85
40 0 40 0 0 80 0 80 -40 0 -40 0 0 80 0 80 -40 0 -40 0 0 40 0 40 -40 0 -40 0
0 40 0 40 -80 0 -80 0 0 45 0 45 -85 0 -85 0 0 80 0 80 45 0 45 0 0 285 0 285
40 0 40 0 0 40 0 40 -125 0 -125 0 0 -80 0 -80 -80 0 -80 0 0 80 0 80 -40 0
-40 0 0 40 0 40 -40 0 -40 0 0 40 0 40 -40 0 -40 0 0 -40z m-570 -650 l0 -40
-40 0 -40 0 0 40 0 40 40 0 40 0 0 -40z m400 -80 l0 -40 -40 0 -40 0 0 40 0
40 40 0 40 0 0 -40z m570 -450 l0 -80 -40 0 -40 0 0 80 0 80 40 0 40 0 0 -80z"/>
</g>
</svg>
